<?xml version="1.0" encoding="UTF-8" standalone="no"?>
<!DOCTYPE svg PUBLIC "-//W3C//DTD SVG 1.1//EN" "http://www.w3.org/Graphics/SVG/1.1/DTD/svg11.dtd">
<svg width="100%" height="100%" viewBox="0 0 294 85" version="1.1" xmlns="http://www.w3.org/2000/svg" xmlns:xlink="http://www.w3.org/1999/xlink" xml:space="preserve" xmlns:serif="http://www.serif.com/" style="fill-rule:evenodd;clip-rule:evenodd;stroke-linejoin:round;stroke-miterlimit:1.41421;">
    <g transform="matrix(1,0,0,1,-225.781,-501.94)">
        <g transform="matrix(1,0,0,1,-43.2333,0)">
            <path d="M327.333,512.741L340.595,562.233L288.251,576.259L274.989,526.766L327.333,512.741Z" style="fill:rgb(29,29,157);fill-rule:nonzero;"/>
            <path d="M269.094,531.814L269.094,582.236L282.604,582.236L269.094,531.814ZM292.998,582.236L346.49,582.236L346.49,567.902L292.998,582.236ZM332.98,506.764L346.491,557.185L346.49,506.764L332.98,506.764ZM269.093,506.764L269.093,521.097L322.587,506.764L269.093,506.764Z" style="fill:rgb(255,42,42);fill-rule:nonzero;"/>
            <path d="M332.284,504.165L349.17,567.185L283.301,584.835L267.32,525.197L266.414,521.815L332.284,504.165ZM274.989,526.766L288.251,576.259L340.595,562.233L327.333,512.741L274.989,526.766Z" style="fill:white;fill-rule:nonzero;"/>
            <g transform="matrix(1,0,0,1,43,0)">
                <path d="M266.982,523.851C267.111,523.853 267.24,523.855 267.369,523.858C265.186,524.299 263.017,525.104 260.955,526.294C251.624,531.681 248.024,542.936 252.921,551.416C256.076,556.882 261.995,559.868 268.302,559.858L268.417,559.857C271.86,559.831 275.414,558.914 278.694,557.02C280.63,555.902 282.317,554.53 283.735,552.985C281.767,556.448 278.811,559.507 275.009,561.703C271.31,563.838 267.301,564.873 263.419,564.902L263.289,564.903C256.176,564.914 249.501,561.547 245.942,555.383C240.421,545.819 244.48,533.126 255.003,527.051C258.764,524.879 262.845,523.846 266.788,523.85L266.982,523.851ZM285.149,536.48L277.794,540.33L285.558,542.923L277.309,543.275L283.092,548.963L275.582,545.748L278.239,553.404L272.956,547.259L271.96,555.367L269.95,547.509L265.499,554.464L267.161,546.448L260.136,550.872L265.14,544.287L256.933,545.304L264.288,541.454L256.524,538.862L264.773,538.509L258.99,532.822L266.5,536.036L263.844,528.38L269.127,534.525L270.122,526.417L272.132,534.275L276.584,527.321L274.921,535.336L281.946,530.912L276.942,537.497L285.149,536.48Z" style="fill:rgb(255,212,42);fill-rule:nonzero;"/>
            </g>
        </g>
        <g transform="matrix(4.21946,0,0,4.21946,-823.549,-995.535)">
            <path d="M273.033,360.924L274.631,360.924L276.629,366.936L278.646,360.924L280.243,360.924L281.689,369.544L280.102,369.544L279.178,364.1L277.347,369.544L275.901,369.544L274.086,364.1L273.14,369.544L271.541,369.544L273.033,360.924Z" style="fill-rule:nonzero;"/>
            <path d="M286.865,363.169L288.464,363.169L288.464,369.544L286.865,369.544L286.865,368.87C286.553,369.167 286.24,369.38 285.926,369.511C285.611,369.642 285.271,369.708 284.904,369.708C284.081,369.708 283.369,369.388 282.768,368.75C282.167,368.111 281.867,367.317 281.867,366.368C281.867,365.383 282.158,364.577 282.739,363.948C283.32,363.319 284.026,363.004 284.858,363.004C285.24,363.004 285.599,363.077 285.934,363.221C286.27,363.366 286.58,363.583 286.865,363.872L286.865,363.169ZM285.183,364.481C284.689,364.481 284.278,364.656 283.951,365.005C283.624,365.355 283.461,365.803 283.461,366.35C283.461,366.901 283.627,367.354 283.96,367.71C284.293,368.065 284.702,368.243 285.189,368.243C285.691,368.243 286.108,368.068 286.439,367.718C286.77,367.369 286.935,366.911 286.935,366.344C286.935,365.79 286.77,365.34 286.439,364.997C286.108,364.653 285.689,364.481 285.183,364.481Z" style="fill-rule:nonzero;"/>
            <rect x="289.246" y="360.708" width="1.6" height="8.836" style="fill-rule:nonzero;"/>
            <path d="M296.344,363.169L297.943,363.169L297.943,369.544L296.344,369.544L296.344,368.87C296.032,369.167 295.718,369.38 295.404,369.511C295.09,369.642 294.75,369.708 294.383,369.708C293.56,369.708 292.848,369.388 292.247,368.75C291.646,368.111 291.346,367.317 291.346,366.368C291.346,365.383 291.636,364.577 292.218,363.948C292.799,363.319 293.505,363.004 294.336,363.004C294.719,363.004 295.078,363.077 295.413,363.221C295.749,363.366 296.059,363.583 296.344,363.872L296.344,363.169ZM294.662,364.481C294.168,364.481 293.757,364.656 293.43,365.005C293.103,365.355 292.939,365.803 292.939,366.35C292.939,366.901 293.106,367.354 293.439,367.71C293.772,368.065 294.181,368.243 294.668,368.243C295.17,368.243 295.587,368.068 295.918,367.718C296.249,367.369 296.414,366.911 296.414,366.344C296.414,365.79 296.249,365.34 295.918,364.997C295.587,364.653 295.168,364.481 294.662,364.481Z" style="fill-rule:nonzero;"/>
            <path d="M298.193,363.169L299.828,363.169L301.484,367.169L303.311,363.169L304.95,363.169L300.958,371.876L299.306,371.876L300.616,369.068L298.193,363.169Z" style="fill-rule:nonzero;"/>
            <path d="M309.104,364.059L308.114,365.049C307.711,364.651 307.346,364.452 307.018,364.452C306.838,364.452 306.698,364.49 306.596,364.566C306.494,364.642 306.444,364.737 306.444,364.85C306.444,364.936 306.476,365.015 306.54,365.087C306.605,365.16 306.764,365.258 307.018,365.383L307.604,365.676C308.221,365.981 308.645,366.292 308.875,366.608C309.106,366.924 309.221,367.295 309.221,367.721C309.221,368.288 309.013,368.76 308.597,369.139C308.181,369.518 307.623,369.708 306.924,369.708C305.994,369.708 305.252,369.344 304.698,368.618L305.682,367.545C305.869,367.764 306.089,367.941 306.341,368.076C306.593,368.211 306.817,368.278 307.012,368.278C307.223,368.278 307.393,368.227 307.522,368.126C307.651,368.024 307.715,367.907 307.715,367.774C307.715,367.528 307.483,367.288 307.018,367.053L306.479,366.784C305.448,366.264 304.932,365.614 304.932,364.833C304.932,364.329 305.126,363.898 305.515,363.541C305.904,363.183 306.401,363.004 307.006,363.004C307.42,363.004 307.81,363.095 308.175,363.277C308.54,363.459 308.85,363.719 309.104,364.059Z" style="fill-rule:nonzero;"/>
            <path d="M310.445,360.544C310.725,360.544 310.966,360.645 311.166,360.848C311.367,361.051 311.467,361.297 311.467,361.586C311.467,361.872 311.368,362.115 311.169,362.316C310.971,362.517 310.733,362.618 310.456,362.618C310.172,362.618 309.93,362.515 309.729,362.31C309.528,362.105 309.428,361.856 309.428,361.563C309.428,361.282 309.527,361.042 309.726,360.842C309.925,360.643 310.164,360.544 310.445,360.544ZM309.645,363.169L311.245,363.169L311.245,369.544L309.645,369.544L309.645,363.169Z" style="fill-rule:nonzero;"/>
            <path d="M316.743,363.169L318.342,363.169L318.342,369.544L316.743,369.544L316.743,368.87C316.431,369.167 316.118,369.38 315.803,369.511C315.489,369.642 315.149,369.708 314.782,369.708C313.959,369.708 313.247,369.388 312.646,368.75C312.045,368.111 311.745,367.317 311.745,366.368C311.745,365.383 312.035,364.577 312.617,363.948C313.198,363.319 313.904,363.004 314.735,363.004C315.118,363.004 315.477,363.077 315.812,363.221C316.148,363.366 316.458,363.583 316.743,363.872L316.743,363.169ZM315.061,364.481C314.567,364.481 314.156,364.656 313.829,365.005C313.502,365.355 313.338,365.803 313.338,366.35C313.338,366.901 313.505,367.354 313.838,367.71C314.171,368.065 314.58,368.243 315.067,368.243C315.569,368.243 315.986,368.068 316.317,367.718C316.648,367.369 316.813,366.911 316.813,366.344C316.813,365.79 316.648,365.34 316.317,364.997C315.986,364.653 315.567,364.481 315.061,364.481Z" style="fill-rule:nonzero;"/>
        </g>
    </g>
</svg>
